HIERARCHY
ROOT Hips
{
	OFFSET 0.000000 0.000000 0.000000 
	CHANNELS 6 Xposition Yposition Zposition Yrotation Zrotation Xrotation 
	JOINT Lumbar
	{
		OFFSET 0.000000 0.000000 0.000000 
		CHANNELS 3 Zrotation Xrotation Yrotation
		JOINT Neck
		{
			OFFSET 0.000000 0.445665 0.000000 
			CHANNELS 3 Zrotation Xrotation Yrotation
			End Site
			{
				OFFSET 0.000000 0.227535 0.000000 
			}
		}
		JOINT RightShoulder
		{
			OFFSET 0.019635 0.377685 0.194865 
			CHANNELS 3 Zrotation Xrotation Yrotation
			JOINT RightElbow
			{
				OFFSET 0.000000 -0.243375 0.000000 
				CHANNELS 2 Zrotation Yrotation
				JOINT RightWrist
				{
					OFFSET 0.000000 -0.264825 0.000000 
					CHANNELS 2 Zrotation Xrotation
					End Site
					{
						OFFSET 0.006600 -0.176220 0.000990 
					}
				}
			}
		}
		JOINT LeftShoulder
		{
			OFFSET 0.019635 0.377685 -0.194865 
			CHANNELS 3 Zrotation Xrotation Yrotation
			JOINT LeftElbow
			{
				OFFSET 0.000000 -0.243375 0.000000 
				CHANNELS 2 Zrotation Yrotation
				JOINT LeftWrist
				{
					OFFSET 0.000000 -0.264825 0.000000 
					CHANNELS 2 Zrotation Xrotation
					End Site
					{
						OFFSET 0.006600 -0.176220 -0.000990 
					}
				}
			}
		}
	}
	JOINT RightHip
	{
		OFFSET 0.052140 -0.069960 0.075570 
		CHANNELS 3 Zrotation Xrotation Yrotation
		JOINT RightKnee
		{
			OFFSET 0.000000 -0.402270 0.000000 
			CHANNELS 1 Zrotation
			JOINT RightAnkle
			{
				OFFSET 0.000000 -0.404085 0.000000 
				CHANNELS 3 Zrotation Xrotation Yrotation
				End Site
				{
					OFFSET 0.204105 -0.089430 0.008415 
				}
			}
		}
	}
	JOINT LeftHip
	{
		OFFSET 0.052140 -0.069960 -0.075570 
		CHANNELS 3 Zrotation Xrotation Yrotation
		JOINT LeftKnee
		{
			OFFSET 0.000000 -0.402270 0.000000 
			CHANNELS 1 Zrotation
			JOINT LeftAnkle
			{
				OFFSET 0.000000 -0.404085 0.000000 
				CHANNELS 3 Zrotation Xrotation Yrotation
				End Site
				{
					OFFSET 0.204105 -0.089430 -0.008415 
				}
			}
		}
	}
}
MOTION
Frames: 11
Frame Time: 0.02
0.00034 -0.00013 0.00036 -175.36673 -27.87791 1.42426 43.38127 -0.69556 -7.21153 -13.97591 2.50291 -1.12214 -21.98265 -0.97402 -27.37916 25.92992 168.32419 25.98411 14.35157 -25.74395 4.08096 10.97451 30.42778 -166.17185 33.6807 -12.82146 29.55219 -3.32458 -10.44404 -20.23536 -6.24957 -2.86479 -3.6119 33.55732 3.97263 8.97103 -24.31512 -6.84324 1.38271 2.92291
0.00022 -0.00013 -3e-05 -175.4369 -27.89923 1.41694 43.39907 -0.69344 -7.22105 -13.94431 2.51705 -1.12272 -22.14091 -1.38057 -25.67455 26.06531 160.87111 24.0935 13.08435 -25.91617 4.39337 9.9614 30.70736 -159.94466 31.75094 -11.74351 29.57578 -3.30532 -10.45007 -20.23567 -6.24798 -2.85878 -3.60855 33.57355 3.9593 8.79671 -24.31852 -6.84174 1.4079 2.93548
9e-05 -0.00012 -0.00041 -175.50695 -27.92048 1.40963 43.41689 -0.69133 -7.23052 -13.9129 2.53117 -1.1233 -22.2989 -1.78593 -23.97499 26.20056 153.4413 22.20881 11.82108 -26.08852 4.70472 8.95174 30.98695 -153.74211 29.82897 -10.66971 29.59927 -3.28609 -10.45612 -20.23598 -6.24639 -2.85277 -3.60519 33.58969 3.94601 8.62282 -24.3219 -6.84025 1.43304 2.94803
-3e-05 -0.00011 -0.0008 -175.57692 -27.94175 1.40232 43.43465 -0.68921 -7.24001 -13.88141 2.54527 -1.12388 -22.45672 -2.19125 -22.27552 26.3356 146.01089 20.32396 10.55771 -26.26032 5.01614 7.94184 31.26585 -147.53539 27.90558 -9.59528 29.6228 -3.26688 -10.46215 -20.23629 -6.24481 -2.84678 -3.60184 33.60588 3.93273 8.44905 -24.32528 -6.83875 1.45815 2.96057
-0.00015 -0.0001 -0.00119 -175.64699 -27.96306 1.39501 43.45235 -0.68708 -7.24955 -13.84973 2.55938 -1.12446 -22.6147 -2.5977 -20.57129 26.47059 138.55804 18.43341 9.29053 -26.43174 5.32867 6.92828 31.54432 -141.30089 25.97334 -8.5162 29.64641 -3.24764 -10.46812 -20.23661 -6.24323 -2.84078 -3.59849 33.62215 3.91937 8.27481 -24.32868 -6.83725 1.48333 2.97313
-0.00028 -9e-05 -0.00158 -175.71699 -27.98417 1.38769 43.47044 -0.68501 -7.25887 -13.81888 2.57352 -1.12504 -22.7727 -3.00072 -18.88178 26.60635 131.17761 16.56127 8.03564 -26.60599 5.63753 5.92682 31.82618 -135.16518 24.07286 -7.45345 29.66964 -3.22844 -10.4743 -20.2369 -6.24163 -2.83475 -3.59512 33.63801 3.90622 8.10162 -24.33204 -6.83577 1.50837 2.98563
-0.0004 -9e-05 -0.00196 -175.78706 -28.00572 1.38039 43.48773 -0.68283 -7.26864 -13.78634 2.58757 -1.12561 -22.93054 -3.4103 -17.16404 26.74058 123.65755 14.6536 6.75707 -26.77443 5.95335 4.9024 32.10119 -128.84084 22.11166 -6.35957 29.69368 -3.2092 -10.48015 -20.23724 -6.24006 -2.8288 -3.59179 33.65474 3.89272 7.92673 -24.33547 -6.83425 1.53364 2.99824
-0.00053 -8e-05 -0.00235 -175.85705 -28.02677 1.37308 43.50576 -0.68075 -7.27796 -13.75548 2.60172 -1.1262 -23.08842 -3.81365 -15.4732 26.87594 116.26996 12.77971 5.50095 -26.94806 6.26294 3.89863 32.38199 -122.68426 20.20448 -5.29341 29.71685 -3.18997 -10.48615 -20.23754 -6.23847 -2.82279 -3.58844 33.67054 3.87946 7.753 -24.33883 -6.83276 1.55875 3.01077
-0.00065 -7e-05 -0.00274 -175.92702 -28.04762 1.36575 43.52471 -0.67878 -7.28686 -13.72617 2.61597 -1.1268 -23.24689 -4.21029 -13.81105 27.01388 109.02655 10.94233 4.26932 -27.12891 6.56429 2.92184 32.67221 -116.75569 18.37069 -4.26475 29.73945 -3.17086 -10.49292 -20.23779 -6.23683 -2.81664 -3.58501 33.6857 3.86683 7.5822 -24.34211 -6.83132 1.58348 3.02314
-0.00076 -6e-05 -0.00312 -175.99734 -28.07082 1.35851 43.53839 -0.67614 -7.29859 -13.68645 2.62956 -1.12729 -23.40359 -4.64825 -11.97118 27.14058 100.90001 8.88045 2.88783 -27.27084 6.91116 1.79501 32.91529 -109.58412 16.13671 -3.03114 29.76682 -3.15137 -10.49705 -20.23831 -6.2354 -2.81106 -3.58187 33.70605 3.85155 7.39908 -24.34586 -6.82966 1.60981 3.03623
-0.00092 -6e-05 -0.00351 -176.06677 -28.08829 1.35107 43.56317 -0.67494 -7.30408 -13.66962 2.64457 -1.12803 -23.56294 -4.99726 -10.51446 27.28866 94.67143 7.30157 1.82835 -27.49314 7.16317 0.98147 33.25324 -104.99093 14.73292 -2.22303 29.78315 -3.13246 -10.50558 -20.23828 -6.23356 -2.80444 -3.57821 33.7145 3.84125 7.23907 -24.34864 -6.82842 1.63313 3.04793
